<svg width="40" height="33" viewBox="0 0 40 33" fill="none" xmlns="http://www.w3.org/2000/svg">
<path d="M20.0001 0C8.78357 0 0 5.17649 0 11.7648V21.1766C0 26.5483 6.1012 31.1907 14.8683 32.539C15.3624 32.7996 15.912 32.9376 16.4707 32.9413H23.5295C24.0882 32.9376 24.6377 32.7996 25.1319 32.539C33.899 31.1907 40.0002 26.5483 40.0002 21.1766V11.7648C40.0002 5.17649 31.2166 0 20.0001 0ZM2.35295 21.1766V17.3836C5.38863 20.3343 9.27097 22.2619 13.4565 22.8966C13.1226 23.4413 12.9443 24.0671 12.9412 24.706V29.4119C12.9412 29.5342 12.9648 29.6472 12.9765 29.7695C6.6965 28.2731 2.35295 24.866 2.35295 21.1766ZM24.706 29.4119C24.6938 29.72 24.5659 30.0122 24.3479 30.2303C24.1298 30.4483 23.8376 30.5762 23.5295 30.5884H21.1766V28.2354H22.353C22.6651 28.2354 22.9643 28.1115 23.1849 27.8908C23.4056 27.6702 23.5295 27.371 23.5295 27.0589C23.5295 26.7469 23.4056 26.4477 23.1849 26.227C22.9643 26.0064 22.6651 25.8825 22.353 25.8825H21.1766V23.5295H23.5295C23.8415 23.5295 24.1408 23.6535 24.3614 23.8741C24.582 24.0947 24.706 24.394 24.706 24.706V29.4119ZM15.2942 29.4119V24.706C15.2942 24.394 15.4181 24.0947 15.6388 23.8741C15.8594 23.6535 16.1586 23.5295 16.4707 23.5295H18.8236V25.8825C18.5116 25.8825 18.2123 26.0064 17.9917 26.227C17.7711 26.4477 17.6471 26.7469 17.6471 27.0589C17.6471 27.371 17.7711 27.6702 17.9917 27.8908C18.2123 28.1115 18.5116 28.2354 18.8236 28.2354V30.5884H16.4707C16.1622 30.5773 15.8693 30.4498 15.6511 30.2315C15.4328 30.0132 15.3053 29.7204 15.2942 29.4119ZM26.786 19.0942C27.0213 16.2448 24.033 14.513 21.1766 14.1836V11.8306C26.7084 12.313 30.4425 16.0565 26.786 19.0942ZM15.2942 18.8236C15.2942 17.713 17.306 16.4707 20.0001 16.4707C22.5601 16.4707 24.4707 17.713 24.4707 18.8236C24.4707 19.9342 22.5601 21.1766 20.0001 21.1766C18.0848 21.1766 15.2942 20.2848 15.2942 18.8236ZM18.8236 14.1954C15.4495 14.5601 12.9412 16.4518 12.9412 18.8189C9.6471 15.6424 13.7577 12.273 18.8236 11.8353V14.1954ZM30.1366 18.4307C30.4182 17.8146 30.5718 17.1478 30.5884 16.4707C30.5884 12.5106 25.9366 9.4118 20.0001 9.4118C14.0636 9.4118 9.4118 12.5106 9.4118 16.4707C9.42738 17.1502 9.58109 17.8195 9.86357 18.4377C9.08062 17.9993 8.41614 17.3769 7.92749 16.6242C7.43885 15.8716 7.14072 15.0113 7.05885 14.1177C7.05885 10.2918 12.9859 7.05885 20.0001 7.05885C27.0142 7.05885 32.9413 10.2918 32.9413 14.1177C32.8594 15.0113 32.5613 15.8716 32.0727 16.6242C31.584 17.3769 30.9196 17.9993 30.1366 18.4377V18.4307ZM37.6472 21.1766C37.6472 24.866 33.3037 28.2731 27.0236 29.7695C27.0354 29.6495 27.0589 29.5342 27.0589 29.4119V24.706C27.0558 24.0671 26.8776 23.4413 26.5436 22.8966C30.7292 22.2619 34.6115 20.3343 37.6472 17.3836V21.1766ZM34.6049 16.9671C35.0545 16.0844 35.2906 15.1084 35.2943 14.1177C35.2943 8.84004 28.5766 4.7059 20.0001 4.7059C11.4236 4.7059 4.7059 8.84004 4.7059 14.1177C4.70981 15.1083 4.94593 16.0843 5.39532 16.9671C4.52447 16.39 3.79745 15.621 3.27006 14.7192C2.74267 13.8174 2.42894 12.8067 2.35295 11.7648C2.35295 6.66356 10.4353 2.35295 20.0001 2.35295C29.5648 2.35295 37.6472 6.66356 37.6472 11.7648C37.5712 12.8067 37.2575 13.8174 36.7301 14.7192C36.2027 15.621 35.4757 16.39 34.6049 16.9671Z" fill="#393D46"/>
</svg>
