<svg width="23" height="23" viewBox="0 0 23 23" fill="none" xmlns="http://www.w3.org/2000/svg">
<path d="M20.4792 5.0667C20.3696 4.79276 20.2015 4.54603 19.9868 4.34368C19.7721 4.14133 19.5158 3.98824 19.2358 3.89507L16.0389 2.82897L15.1852 1.12158C15.0175 0.783766 14.7585 0.499662 14.4376 0.301442C14.1167 0.103222 13.7467 -0.00119665 13.3696 1.03466e-05H9.6301C9.25293 -0.00119665 8.88296 0.103222 8.56208 0.301442C8.2412 0.499662 7.98222 0.783766 7.81448 1.12158L6.96079 2.82897L3.76383 3.89507C3.48388 3.98824 3.2276 4.14133 3.01287 4.34368C2.79814 4.54603 2.63011 4.79276 2.5205 5.0667L0.242178 10.7639C0.0814509 11.1634 -0.000772772 11.5901 5.47321e-06 12.0207V20.2938C5.47321e-06 20.6526 0.142545 20.9968 0.396267 21.2505C0.649989 21.5042 0.99411 21.6467 1.35293 21.6467H2.70585C3.06467 21.6467 3.40879 21.5042 3.66251 21.2505C3.91623 20.9968 4.05877 20.6526 4.05877 20.2938V18.3646L4.73523 16.1079V17.6259C4.77513 18.3886 5.00788 19.1287 5.41169 19.777V21.6467C5.41169 22.0056 5.55423 22.3497 5.80795 22.6034C6.06168 22.8571 6.4058 22.9997 6.76461 22.9997H16.2351C16.5939 22.9997 16.938 22.8571 17.1917 22.6034C17.4454 22.3497 17.588 22.0056 17.588 21.6467V19.777C17.9919 19.1288 18.2246 18.3886 18.2644 17.6259V16.1079L18.9409 18.3646V20.2938C18.9409 20.6526 19.0834 20.9968 19.3372 21.2505C19.5909 21.5042 19.935 21.6467 20.2938 21.6467H21.6468C22.0056 21.6467 22.3497 21.5042 22.6034 21.2505C22.8571 20.9968 22.9997 20.6526 22.9997 20.2938V12.0207C23.0006 11.5905 22.9184 11.1642 22.7575 10.7652L20.4792 5.0667ZM18.926 5.24934C18.2045 6.33435 17.5437 7.45855 16.9467 8.61677C16.875 8.88735 16.9359 8.57347 16.9115 16.2351C16.3733 16.2351 15.8571 16.0213 15.4765 15.6407C15.096 15.2601 14.8821 14.7439 14.8821 14.2057C14.8821 14.0263 14.8109 13.8542 14.684 13.7274C14.5572 13.6005 14.3851 13.5292 14.2057 13.5292C14.0263 13.5292 13.8542 13.6005 13.7274 13.7274C13.6005 13.8542 13.5292 14.0263 13.5292 14.2057C13.5292 15.1027 13.8856 15.963 14.5199 16.5973C15.1542 17.2316 16.0145 17.588 16.9115 17.588V17.6259C16.8834 18.0921 16.7398 18.544 16.4935 18.9409H12.1763V6.45074L15.6587 4.12913C19.5227 5.44281 18.6568 5.09241 18.926 5.24934ZM8.6587 2.47044L9.49616 3.93566L8.31912 3.15096L8.6587 2.47044ZM14.3518 2.47044L14.6914 3.1469L13.5143 3.9316L14.3518 2.47044ZM13.4237 1.36646L11.4998 4.72441L9.5814 1.36646C9.85604 1.35293 13.1423 1.35293 13.4183 1.36646H13.4237ZM7.34096 4.12913L10.8234 6.45074V18.9409H6.50621C6.25786 18.545 6.11403 18.0925 6.08815 17.6259V17.588C6.9852 17.588 7.8455 17.2316 8.4798 16.5973C9.11411 15.963 9.47046 15.1027 9.47046 14.2057C9.47046 14.0263 9.39919 13.8542 9.27233 13.7274C9.14547 13.6005 8.97341 13.5292 8.794 13.5292C8.61459 13.5292 8.44253 13.6005 8.31567 13.7274C8.18881 13.8542 8.11754 14.0263 8.11754 14.2057C8.11754 14.7439 7.90373 15.2601 7.52314 15.6407C7.14256 16.0213 6.62638 16.2351 6.08815 16.2351C6.0638 8.57482 6.12468 8.88058 6.05298 8.61677C5.45641 7.45832 4.79561 6.33409 4.07365 5.24934C4.28065 5.12758 5.96098 4.59994 7.34096 4.12913ZM1.35293 20.2938V18.9409H2.70585V20.2938H1.35293ZM4.65 11.6865L2.87902 17.588H1.35293V12.0207C1.35282 11.7626 1.40195 11.5068 1.49769 11.2671L3.34172 6.65909L4.73523 8.9807V11.1034C4.73534 11.3009 4.70663 11.4974 4.65 11.6865ZM6.76461 21.6467V20.2938H16.2351V21.6467H6.76461ZM18.2644 11.1034V8.9807L19.658 6.65909L21.502 11.2685C21.598 11.5076 21.6472 11.763 21.6468 12.0207V17.588H20.1207L18.3497 11.6852C18.2929 11.4965 18.2642 11.3005 18.2644 11.1034ZM20.2938 20.2938V18.9409H21.6468V20.2938H20.2938Z" fill="#9F9F9F"/>
</svg>
