<svg width="16" height="23" viewBox="0 0 16 23" fill="none" xmlns="http://www.w3.org/2000/svg">
<path d="M2.36579e-05 17.724C0.0415215 19.2073 0.461481 20.6553 1.22002 21.9307C1.33086 22.1519 1.50106 22.3379 1.71157 22.4678C1.92209 22.5978 2.16461 22.6667 2.41202 22.6667H8.14536C8.443 22.6669 8.73216 22.5675 8.96678 22.3843C9.2014 22.2012 9.36799 21.9448 9.44002 21.656L10 19.416L10.56 21.656C10.6321 21.9448 10.7986 22.2012 11.0333 22.3843C11.2679 22.5675 11.557 22.6669 11.8547 22.6667H13.588C13.8359 22.6667 14.0789 22.5975 14.2897 22.467C14.5005 22.3366 14.6708 22.1499 14.7814 21.928C15.5403 20.6539 15.9599 19.2065 16 17.724C16 13.8013 13.3334 12.5747 13.3334 11.0707C13.3334 9.204 16 8.88533 16 6.26267C16 3.424 13.3334 3.712 13.3334 1.948V1.33333C13.3334 0.979711 13.1929 0.640573 12.9428 0.390525C12.6928 0.140476 12.3536 0 12 0H10.6667C10.3131 0 9.97393 0.140476 9.72388 0.390525C9.47383 0.640573 9.33336 0.979711 9.33336 1.33333V2.13333C9.33359 2.39321 9.26956 2.64911 9.14697 2.87825C9.02437 3.10739 8.84702 3.30266 8.63069 3.44667C8.39393 3.60427 8.18146 3.79563 8.00002 4.01467C7.81859 3.79563 7.60612 3.60427 7.36936 3.44667C7.15303 3.30266 6.97568 3.10739 6.85308 2.87825C6.73048 2.64911 6.66645 2.39321 6.66669 2.13333V1.33333C6.66669 0.979711 6.52621 0.640573 6.27617 0.390525C6.02612 0.140476 5.68698 0 5.33336 0H4.00002C3.6464 0 3.30726 0.140476 3.05721 0.390525C2.80717 0.640573 2.66669 0.979711 2.66669 1.33333V1.948C2.66758 2.2406 2.58665 2.52762 2.43303 2.77666C2.27942 3.02569 2.05924 3.22682 1.79736 3.35733C1.25577 3.62579 0.800281 4.04069 0.482585 4.55494C0.16489 5.06919 -0.00228827 5.6622 2.36579e-05 6.26667C2.36579e-05 8.85867 2.66669 9.23467 2.66669 11.0973C2.66669 12.5213 2.36579e-05 13.832 2.36579e-05 17.724ZM1.33336 6.25733C1.33336 4.15867 4.00002 4.716 4.00002 1.94267V1.33333H5.33336V2.13333C5.33264 2.6129 5.45076 3.08516 5.67715 3.50793C5.90354 3.93069 6.23114 4.29078 6.63069 4.556C6.84664 4.69976 7.02376 4.8946 7.14634 5.12324C7.26892 5.35188 7.33316 5.60724 7.33336 5.86667C7.33336 6.04348 7.40359 6.21305 7.52862 6.33807C7.65364 6.4631 7.82321 6.53333 8.00002 6.53333C8.17684 6.53333 8.34641 6.4631 8.47143 6.33807C8.59645 6.21305 8.66669 6.04348 8.66669 5.86667C8.66645 5.60679 8.73048 5.35089 8.85308 5.12175C8.97567 4.89261 9.15303 4.69734 9.36936 4.55333C9.76853 4.28836 10.0959 3.9287 10.3223 3.50644C10.5486 3.08417 10.667 2.61244 10.6667 2.13333V1.33333H12V1.948C12 4.748 14.6667 4.14533 14.6667 6.26267C14.6667 8.14533 12 8.44667 12 11.0933C12 13.4333 14.6667 14.0547 14.6667 17.724C14.6211 18.9993 14.2503 20.2417 13.5894 21.3333H11.856L10.648 16.5053C10.5981 16.3743 10.5095 16.2615 10.394 16.1819C10.2786 16.1023 10.1416 16.0597 10.0014 16.0597C9.8611 16.0597 9.72416 16.1023 9.60868 16.1819C9.49319 16.2615 9.40462 16.3743 9.35469 16.5053L8.14536 21.3333H2.41202C1.75093 20.2417 1.37964 18.9993 1.33336 17.724C1.33336 14.092 4.00002 13.4453 4.00002 11.0707C4.00002 8.42533 1.33336 8.16667 1.33336 6.26667V6.25733Z" fill="#9F9F9F"/>
</svg>
