<svg width="40" height="29" viewBox="0 0 40 29" fill="none" xmlns="http://www.w3.org/2000/svg">
<path d="M37.647 2.42489H25.4332C25.0122 2.42542 24.5992 2.53959 24.2376 2.75534C23.8761 2.9711 23.5795 3.28045 23.3792 3.65074C23.2193 2.95577 22.9036 2.30623 22.4558 1.75119C22.0081 1.19615 21.44 0.750127 20.7946 0.446828C20.1492 0.143528 19.4433 -0.00911945 18.7302 0.000421215C18.0172 0.00996188 17.3156 0.18144 16.6786 0.501899C16.0415 0.822358 15.4856 1.28342 15.0529 1.85024C14.6201 2.41706 14.3219 3.07482 14.1807 3.77382C14.0394 4.47282 14.0589 5.19477 14.2376 5.88513C14.4164 6.5755 14.7497 7.21621 15.2123 7.75887C14.93 7.81769 13.2947 8.19415 12.6571 8.34238C12.3608 8.42365 12.108 8.61765 11.9528 8.88289C11.7976 9.14813 11.7524 9.46355 11.8268 9.76171C11.9012 10.0599 12.0893 10.3171 12.3508 10.4783C12.6124 10.6396 12.9267 10.6921 13.2265 10.6247C15.2744 10.0368 17.3815 9.67934 19.5087 9.55882C17.7507 11.0354 15.527 11.8422 13.2312 11.8364C10.1983 11.8383 7.2529 12.853 4.86243 14.7196C2.47197 16.5862 0.773387 19.1977 0.0362636 22.1397C-0.0272642 22.3961 0.015088 23.4267 0.000970703 24.7772C0.000970703 25.2407 0.0922589 25.6997 0.269624 26.1278C0.446989 26.556 0.706956 26.9451 1.03468 27.2728C1.36241 27.6006 1.75148 27.8605 2.17968 28.0379C2.60787 28.2153 3.06681 28.3066 3.53029 28.3066H23.7321C24.6669 28.3035 25.5629 27.9325 26.2262 27.2736L27.0591 26.4407L27.892 27.2736C28.5552 27.9325 29.4512 28.3035 30.386 28.3066H36.4706C37.4066 28.3066 38.3043 27.9347 38.9662 27.2728C39.6281 26.611 39.9999 25.7133 39.9999 24.7772V4.77777C39.9999 4.15375 39.752 3.55529 39.3108 3.11404C38.8695 2.67279 38.2711 2.42489 37.647 2.42489ZM18.824 7.13065C18.3586 7.13065 17.9037 6.99266 17.5168 6.73412C17.1299 6.47558 16.8283 6.10811 16.6502 5.67818C16.4721 5.24825 16.4255 4.77516 16.5163 4.31875C16.6071 3.86233 16.8312 3.44309 17.1603 3.11404C17.4893 2.78498 17.9086 2.56089 18.365 2.4701C18.8214 2.37932 19.2945 2.42591 19.7244 2.60399C20.1543 2.78208 20.5218 3.08365 20.7803 3.47058C21.0389 3.85751 21.1769 4.31242 21.1769 4.77777V7.13065H18.824ZM13.2312 14.1893C14.408 14.1874 15.5784 14.0163 16.7064 13.6811C17.1084 14.1525 17.5374 14.6003 17.9911 15.0222C18.212 15.2431 18.5116 15.3672 18.824 15.3672C19.1364 15.3672 19.436 15.2431 19.6569 15.0222C19.8778 14.8013 20.0019 14.5017 20.0019 14.1893C20.0019 13.8769 19.8778 13.5773 19.6569 13.3564L19.0075 12.707C19.3016 12.547 19.5957 12.3846 19.8757 12.1987L21.5228 13.8458C21.7437 14.0667 22.0433 14.1908 22.3557 14.1908C22.6681 14.1908 22.9677 14.0667 23.1886 13.8458C23.4095 13.6249 23.5336 13.3252 23.5336 13.0128C23.5336 12.7004 23.4095 12.4008 23.1886 12.1799L21.7133 10.707C21.9486 10.4717 22.1839 10.2364 22.3863 10.0012L23.8756 11.4929C23.985 11.6023 24.1149 11.689 24.2578 11.7482C24.4007 11.8074 24.5539 11.8379 24.7086 11.8379C24.8632 11.8379 25.0164 11.8074 25.1593 11.7482C25.3022 11.689 25.4321 11.6023 25.5415 11.4929C25.6509 11.3835 25.7376 11.2537 25.7968 11.1107C25.856 10.9678 25.8865 10.8147 25.8865 10.66C25.8865 10.5053 25.856 10.3521 25.7968 10.2092C25.7376 10.0663 25.6509 9.93643 25.5415 9.82705L23.7533 8.04121C24.5227 6.6836 24.6403 6.32832 25.4356 4.77777H37.647V21.2479H2.79148C3.62599 19.1621 5.06688 17.3746 6.92794 16.1162C8.789 14.8579 10.9847 14.1867 13.2312 14.1893ZM36.4706 25.9537H30.386C29.6425 25.9537 29.3767 25.3443 28.7226 24.7772C28.2741 24.35 27.6785 24.1117 27.0591 24.1117C26.4397 24.1117 25.8441 24.35 25.3956 24.7772C24.7391 25.3466 24.4733 25.9537 23.7321 25.9537H3.53029C3.21828 25.9537 2.91905 25.8297 2.69842 25.6091C2.4778 25.3885 2.35385 25.0892 2.35385 24.7772V23.6008H37.647V24.7772C37.647 25.0892 37.5231 25.3885 37.3025 25.6091C37.0818 25.8297 36.7826 25.9537 36.4706 25.9537Z" fill="white"/>
</svg>
