<svg width="19" height="23" viewBox="0 0 19 23" fill="none" xmlns="http://www.w3.org/2000/svg">
<path d="M16.9302 3.27277V1.35294C16.9302 0.994119 16.7876 0.649993 16.5339 0.396268C16.2802 0.142542 15.936 0 15.5772 0H3.40074C3.04191 0 2.69779 0.142542 2.44406 0.396268C2.19034 0.649993 2.0478 0.994119 2.0478 1.35294V3.27277C0.974912 6.86618 -0.0533234 8.4843 0.00214724 11.5C0.0603237 14.6469 1.19003 16.1365 3.27897 22.1233C3.37689 22.3804 3.55045 22.6019 3.77677 22.7584C4.00308 22.9149 4.27152 22.9991 4.54668 23H10.2683C10.5885 22.9999 10.8983 22.8861 11.1426 22.679C11.3869 22.4719 11.5497 22.1849 11.6023 21.8689L12.1949 18.3202L12.8334 22.1531C12.8729 22.39 12.9952 22.6052 13.1786 22.7603C13.3619 22.9154 13.5944 23.0004 13.8346 23H14.6667C14.8726 22.9995 15.0735 22.9363 15.2427 22.8188C15.4118 22.7014 15.5413 22.5352 15.6137 22.3425C17.7446 16.2542 18.9163 14.6713 18.9744 11.5014C19.0313 8.47753 17.9936 6.83371 16.9302 3.27277ZM15.5772 1.35294V2.70588H3.40074V1.35294H15.5772ZM14.4313 21.6471H14.1201L12.8619 14.0949C12.8352 13.9373 12.7536 13.7942 12.6315 13.6911C12.5094 13.5879 12.3547 13.5313 12.1949 13.5313C12.035 13.5313 11.8803 13.5879 11.7582 13.6911C11.6361 13.7942 11.5545 13.9373 11.5279 14.0949L10.2683 21.6471H4.54533C2.40497 15.5588 1.41327 14.2911 1.35509 11.5C1.29962 8.82118 2.20609 7.42088 3.21268 4.05882H15.7653C16.7664 7.40059 17.6729 8.81441 17.6229 11.4757C17.5714 14.2884 16.5649 15.5751 14.4313 21.6471Z" fill="#9F9F9F"/>
</svg>
