<svg width="15" height="23" viewBox="0 0 15 23" fill="none" xmlns="http://www.w3.org/2000/svg">
<path d="M12.1757 2.50638e-06H2.62453C2.2798 -0.000660666 1.94782 0.130302 1.69639 0.366145C1.44496 0.601988 1.29304 0.924919 1.27167 1.26899L0.00268769 21.5619C-0.00897183 21.7466 0.0173875 21.9317 0.0801352 22.1058C0.142883 22.2799 0.240684 22.4393 0.36749 22.5741C0.494296 22.7089 0.64741 22.8163 0.81736 22.8895C0.987311 22.9628 1.17048 23.0004 1.35555 23H4.12215C4.44238 22.9999 4.75218 22.8861 4.99643 22.679C5.24068 22.4719 5.40355 22.1849 5.45607 21.869L7.40013 10.2033L9.3442 21.869C9.397 22.1847 9.56 22.4714 9.80422 22.6782C10.0484 22.885 10.3581 22.9986 10.6781 22.9987H13.4447C13.6297 22.999 13.8127 22.9614 13.9826 22.8883C14.1524 22.8151 14.3055 22.7079 14.4323 22.5732C14.559 22.4386 14.6569 22.2794 14.7197 22.1054C14.7825 21.9315 14.809 21.7465 14.7976 21.5619L13.5286 1.26899C13.5072 0.924919 13.3553 0.601988 13.1039 0.366145C12.8524 0.130302 12.5205 -0.000660666 12.1757 2.50638e-06ZM12.1757 1.35286L12.3245 3.73525C11.8644 3.53012 11.4737 3.1958 11.1999 2.77288C10.9262 2.34997 10.7811 1.85666 10.7823 1.35286H12.1757ZM4.01798 1.35286C4.01902 1.85662 3.87386 2.34986 3.6001 2.77274C3.32635 3.19562 2.93576 3.52998 2.47572 3.73525L2.62453 1.35286H4.01798ZM10.6781 21.6458L8.06709 5.97695C8.04044 5.81934 7.95883 5.67626 7.83675 5.57309C7.71466 5.46991 7.55998 5.41331 7.40013 5.41331C7.24029 5.41331 7.08561 5.46991 6.96352 5.57309C6.84143 5.67626 6.75983 5.81934 6.73317 5.97695L4.12215 21.6458H1.35555L2.37831 5.29646C3.21772 5.01937 3.95324 4.494 4.48758 3.78983C5.02193 3.08566 5.32993 2.23587 5.37084 1.35286H6.7237V3.38216C6.7237 3.56156 6.79497 3.73361 6.92182 3.86047C7.04868 3.98732 7.22073 4.05859 7.40013 4.05859C7.57953 4.05859 7.75159 3.98732 7.87844 3.86047C8.0053 3.73361 8.07656 3.56156 8.07656 3.38216V1.35286H9.42943C9.47034 2.23587 9.77834 3.08566 10.3127 3.78983C10.847 4.494 11.5825 5.01937 12.422 5.29646L13.4447 21.6458H10.6781Z" fill="#9F9F9F"/>
</svg>
