<svg width="39" height="35" viewBox="0 0 39 35" fill="none" xmlns="http://www.w3.org/2000/svg">
<path d="M11.1832 35H27.5165C28.1353 35 28.7288 34.7542 29.1664 34.3166C29.604 33.879 29.8498 33.2855 29.8498 32.6667V13.3163L31.7002 15.1667C32.1444 15.5914 32.7353 15.8285 33.3498 15.8285C33.9644 15.8285 34.5553 15.5914 34.9995 15.1667L38.0165 12.1497C38.4539 11.7121 38.6997 11.1187 38.6997 10.5C38.6997 9.88129 38.4539 9.28791 38.0165 8.85034L30.1905 1.02434C29.8664 0.69863 29.4809 0.440396 29.0564 0.264575C28.6318 0.0887534 28.1767 -0.00116761 27.7172 1.14463e-05H10.9825C10.523 -0.00116761 10.0678 0.0887534 9.64329 0.264575C9.21876 0.440396 8.83329 0.69863 8.50917 1.02434L0.683169 8.85034C0.245736 9.28791 0 9.88129 0 10.5C0 11.1187 0.245736 11.7121 0.683169 12.1497L3.70017 15.1667C4.14436 15.5914 4.73526 15.8285 5.34984 15.8285C5.96441 15.8285 6.55531 15.5914 6.9995 15.1667L8.84984 13.3163V32.6667C8.84984 33.2855 9.09567 33.879 9.53325 34.3166C9.97084 34.7542 10.5643 35 11.1832 35ZM22.6352 2.33334C22.3976 3.01531 21.9537 3.60644 21.365 4.02474C20.7763 4.44304 20.072 4.66778 19.3498 4.66778C18.6277 4.66778 17.9234 4.44304 17.3347 4.02474C16.746 3.60644 16.3021 3.01531 16.0645 2.33334H22.6352ZM5.34984 13.517L2.33283 10.5L10.1588 2.67401C10.3775 2.45592 10.6737 2.33341 10.9825 2.33334H13.6355C13.9033 3.65201 14.6187 4.83756 15.6605 5.68912C16.7024 6.54067 18.0066 7.00586 19.3522 7.00586C20.6978 7.00586 22.002 6.54067 23.0438 5.68912C24.0857 4.83756 24.8011 3.65201 25.0688 2.33334H27.7218C28.0307 2.33341 28.3269 2.45592 28.5455 2.67401L36.3668 10.5L33.3498 13.517L29.5092 9.67401C29.346 9.51043 29.1379 9.39897 28.9114 9.35379C28.6848 9.3086 28.4499 9.3317 28.2364 9.42018C28.023 9.50865 27.8406 9.65851 27.7125 9.85075C27.5843 10.043 27.5161 10.269 27.5165 10.5V32.6667H11.1832V10.5C11.1836 10.269 11.1154 10.043 10.9872 9.85075C10.8591 9.65851 10.6767 9.50865 10.4633 9.42018C10.2498 9.3317 10.0149 9.3086 9.78832 9.35379C9.56174 9.39897 9.35367 9.51043 9.1905 9.67401L5.34984 13.517Z" fill="#393D46"/>
</svg>
