<svg width="34" height="34" viewBox="0 0 34 34" fill="none" xmlns="http://www.w3.org/2000/svg">
<path d="M30.0097 0.925543C29.9867 0.661086 29.8608 0.416228 29.6591 0.24369C29.4574 0.0711514 29.196 -0.0152669 28.9311 0.00304138C28.7996 0.0128988 28.6713 0.0486678 28.5536 0.108291C28.436 0.167914 28.3313 0.250213 28.2455 0.350455C28.1598 0.450697 28.0947 0.566904 28.0541 0.692387C28.0134 0.81787 27.998 0.950154 28.0086 1.08163L29.1833 16.0638C26.5154 16.2642 23.9578 17.212 21.8036 18.7985C19.6494 20.3851 17.9855 22.5463 17.0026 25.0347C16.0195 22.5457 14.355 20.3841 12.2 18.7975C10.045 17.2109 7.48663 16.2635 4.81802 16.0638L5.99666 1.08163C6.01736 0.816267 5.9318 0.553552 5.75879 0.351278C5.58579 0.149004 5.33952 0.0237395 5.07416 0.00304138C4.8088 -0.0176568 4.54609 0.0679067 4.34381 0.240909C4.14154 0.413912 4.01627 0.660182 3.99557 0.925543L2.76491 16.6281C0.972339 18.5568 -0.0165164 21.097 0.00020875 23.73C0.0169339 26.3631 1.03798 28.8905 2.8549 30.7963C4.67183 32.702 7.14762 33.8425 9.77688 33.9849C12.4061 34.1272 14.9906 33.2607 17.0026 31.5622C19.0147 33.2596 21.5987 34.1251 24.2272 33.9821C26.8557 33.8391 29.3305 32.6983 31.1466 30.7926C32.9626 28.887 33.9829 26.3601 33.9992 23.7278C34.0155 21.0954 33.0266 18.5561 31.2344 16.6281L30.0097 0.925543ZM4.44782 29.5671C2.925 28.0466 2.04595 25.9982 1.99304 23.8469C1.94014 21.6955 2.71743 19.6064 4.16367 18.0128C7.27183 18.1134 10.2252 19.3932 12.424 21.5924C14.6227 23.7915 15.9021 26.7451 16.0021 29.8533C14.4083 31.2992 12.319 32.0762 10.1677 32.0229C8.01635 31.9696 5.96809 31.0902 4.44782 29.5671ZM29.5555 29.5671C28.0341 31.0854 25.9878 31.9614 23.8391 32.0143C21.6904 32.0672 19.6034 31.2929 18.0092 29.8513C18.1097 26.7444 19.3884 23.7922 21.5858 21.5936C23.7833 19.3951 26.7348 18.1149 29.8416 18.0128C31.2881 19.6064 32.0653 21.6958 32.012 23.8473C31.9587 25.9987 31.079 28.0471 29.5555 29.5671Z" fill="#CDCFD1"/>
</svg>
