<svg width="7" height="10" viewBox="0 0 7 10" fill="none" xmlns="http://www.w3.org/2000/svg">
<path d="M6.03755 4.96802C6.03832 5.10036 6.01295 5.23155 5.96291 5.35407C5.91287 5.47658 5.83913 5.58802 5.74593 5.68198L1.72364 9.70427C1.53429 9.89362 1.27747 10 1.00969 10C0.741901 10 0.485083 9.89362 0.29573 9.70427C0.106377 9.51492 -3.24296e-08 9.2581 -4.41348e-08 8.99031C-5.58401e-08 8.72253 0.106377 8.46571 0.29573 8.27636L3.61412 4.96802L0.305786 1.65969C0.141046 1.46732 0.0549628 1.21987 0.0647381 0.966793C0.0745134 0.713715 0.179428 0.473645 0.358515 0.294557C0.537602 0.11547 0.777671 0.0105575 1.03075 0.00078249C1.28383 -0.0089925 1.53128 0.0770892 1.72364 0.241828L5.74593 4.26412C5.93171 4.45142 6.03644 4.70422 6.03755 4.96802Z" fill="#9F9F9F"/>
</svg>
