<svg width="22" height="35" viewBox="0 0 22 35" fill="none" xmlns="http://www.w3.org/2000/svg">
<path d="M18.0988 3.72564e-06H3.90127C3.38884 -0.000982055 2.89537 0.193689 2.52162 0.544261C2.14788 0.894833 1.92206 1.37486 1.89029 1.8863L0.00399515 32.051C-0.0133363 32.3255 0.025846 32.6007 0.119118 32.8595C0.21239 33.1183 0.357768 33.3552 0.54626 33.5556C0.734753 33.756 0.962351 33.9155 1.21498 34.0244C1.4676 34.1333 1.73988 34.1892 2.01497 34.1887H6.12743C6.60344 34.1884 7.06394 34.0194 7.42701 33.7115C7.79008 33.4037 8.03219 32.9771 8.11025 32.5075L11 15.1668L13.8898 32.5075C13.9683 32.9767 14.2106 33.4029 14.5736 33.7103C14.9366 34.0177 15.3969 34.1865 15.8726 34.1867H19.9851C20.26 34.1872 20.5321 34.1313 20.7846 34.0226C21.0371 33.9138 21.2646 33.7544 21.453 33.5543C21.6415 33.3541 21.7869 33.1175 21.8803 32.8589C21.9737 32.6003 22.0131 32.3254 21.9961 32.051L20.1098 1.8863C20.078 1.37486 19.8522 0.894833 19.4784 0.544261C19.1047 0.193689 18.6112 -0.000982055 18.0988 3.72564e-06ZM18.0988 2.01098L18.32 5.55232C17.636 5.2474 17.0553 4.75044 16.6483 4.12179C16.2414 3.49314 16.0257 2.75986 16.0275 2.01098H18.0988ZM5.97258 2.01098C5.97413 2.7598 5.75835 3.49298 5.35142 4.12158C4.94449 4.75018 4.3639 5.24719 3.68006 5.55232L3.90127 2.01098H5.97258ZM15.8726 32.1757L11.9914 8.88451C11.9518 8.65024 11.8305 8.43756 11.649 8.28419C11.4676 8.13083 11.2376 8.04668 11 8.04668C10.7624 8.04668 10.5325 8.13083 10.351 8.28419C10.1695 8.43756 10.0482 8.65024 10.0086 8.88451L6.12743 32.1757H2.01497L3.53527 7.87299C4.78302 7.46111 5.87634 6.68016 6.67063 5.63344C7.46491 4.58672 7.92274 3.32354 7.98356 2.01098H9.99454V5.02745C9.99454 5.29413 10.1005 5.54988 10.289 5.73844C10.4776 5.92701 10.7334 6.03294 11 6.03294C11.2667 6.03294 11.5225 5.92701 11.711 5.73844C11.8996 5.54988 12.0055 5.29413 12.0055 5.02745V2.01098H14.0165C14.0773 3.32354 14.5351 4.58672 15.3294 5.63344C16.1237 6.68016 17.217 7.46111 18.4648 7.87299L19.9851 32.1757H15.8726Z" fill="#CDCFD1"/>
</svg>
