<svg width="26" height="40" viewBox="0 0 26 40" fill="none" xmlns="http://www.w3.org/2000/svg">
<path d="M21.1752 4.35892e-06H4.5644C3.96487 -0.00114898 3.38752 0.226612 2.95024 0.636773C2.51297 1.04693 2.24877 1.60855 2.2116 2.20693L0.00467424 37.499C-0.0156032 37.8202 0.0302392 38.1421 0.139365 38.4449C0.248492 38.7477 0.418581 39.0249 0.639113 39.2593C0.859645 39.4938 1.12593 39.6804 1.4215 39.8078C1.71706 39.9352 2.03562 40.0006 2.35748 40H7.16896C7.72588 39.9997 8.26465 39.8019 8.68944 39.4418C9.11423 39.0816 9.39748 38.5824 9.48882 38.0331L12.8698 17.7448L16.2508 38.0331C16.3426 38.582 16.6261 39.0806 17.0508 39.4403C17.4756 39.8 18.0141 39.9975 18.5706 39.9976H23.3821C23.7038 39.9983 24.0221 39.9329 24.3175 39.8057C24.6129 39.6784 24.8791 39.4919 25.0996 39.2578C25.3201 39.0236 25.4902 38.7467 25.5995 38.4442C25.7088 38.1417 25.7549 37.82 25.7349 37.499L23.528 2.20693C23.4908 1.60855 23.2266 1.04693 22.7893 0.636773C22.3521 0.226612 21.7747 -0.00114898 21.1752 4.35892e-06ZM21.1752 2.35281L21.434 6.49609C20.6337 6.13934 19.9543 5.55791 19.4782 4.8224C19.002 4.0869 18.7497 3.22897 18.7518 2.35281H21.1752ZM6.98779 2.35281C6.9896 3.22891 6.73715 4.08671 6.26105 4.82216C5.78495 5.55761 5.10566 6.1391 4.3056 6.49609L4.5644 2.35281H6.98779ZM18.5706 37.6448L14.0297 10.3947C13.9834 10.1206 13.8414 9.87176 13.6291 9.69232C13.4168 9.51289 13.1478 9.41444 12.8698 9.41444C12.5918 9.41444 12.3228 9.51289 12.1105 9.69232C11.8981 9.87176 11.7562 10.1206 11.7099 10.3947L7.16896 37.6448H2.35748L4.13619 9.21123C5.59603 8.72934 6.87519 7.81565 7.80449 6.59101C8.73379 5.36637 9.26944 3.88847 9.34059 2.35281H11.6934V5.88201C11.6934 6.19401 11.8173 6.49323 12.038 6.71385C12.2586 6.93447 12.5578 7.05841 12.8698 7.05841C13.1818 7.05841 13.481 6.93447 13.7016 6.71385C13.9223 6.49323 14.0462 6.19401 14.0462 5.88201V2.35281H16.399C16.4702 3.88847 17.0058 5.36637 17.9351 6.59101C18.8644 7.81565 20.1436 8.72934 21.6034 9.21123L23.3821 37.6448H18.5706Z" fill="#393D46"/>
</svg>
