<svg width="23" height="19" viewBox="0 0 23 19" fill="none" xmlns="http://www.w3.org/2000/svg">
<path d="M11.4998 0C5.05046 0 0 2.97643 0 6.76461V12.1763C0 15.265 3.50813 17.9343 8.54911 18.7096C8.83324 18.8594 9.14923 18.9388 9.47045 18.9409H13.5292C13.8504 18.9388 14.1664 18.8594 14.4506 18.7096C19.4915 17.9343 22.9997 15.265 22.9997 12.1763V6.76461C22.9997 2.97643 17.9492 0 11.4998 0ZM1.35292 12.1763V9.99539C3.0984 11.692 5.33071 12.8003 7.73736 13.1653C7.54533 13.4785 7.44286 13.8383 7.44107 14.2057V16.9115C7.44107 16.9819 7.4546 17.0468 7.46136 17.1172C3.85042 16.2567 1.35292 14.2977 1.35292 12.1763ZM14.2057 16.9115C14.1987 17.0887 14.1252 17.2567 13.9998 17.3821C13.8744 17.5075 13.7064 17.581 13.5292 17.588H12.1763V16.2351H12.8528C13.0322 16.2351 13.2042 16.1638 13.3311 16.0369C13.4579 15.9101 13.5292 15.738 13.5292 15.5586C13.5292 15.3792 13.4579 15.2071 13.3311 15.0803C13.2042 14.9534 13.0322 14.8821 12.8528 14.8821H12.1763V13.5292H13.5292C13.7086 13.5292 13.8807 13.6005 14.0075 13.7273C14.1344 13.8542 14.2057 14.0263 14.2057 14.2057V16.9115ZM8.79399 16.9115V14.2057C8.79399 14.0263 8.86526 13.8542 8.99212 13.7273C9.11898 13.6005 9.29104 13.5292 9.47045 13.5292H10.8234V14.8821C10.644 14.8821 10.4719 14.9534 10.345 15.0803C10.2182 15.2071 10.1469 15.3792 10.1469 15.5586C10.1469 15.738 10.2182 15.9101 10.345 16.0369C10.4719 16.1638 10.644 16.2351 10.8234 16.2351V17.588H9.47045C9.29308 17.5816 9.1247 17.5083 8.9992 17.3828C8.87369 17.2573 8.80037 17.0889 8.79399 16.9115ZM15.4017 10.979C15.537 9.34057 13.8187 8.34482 12.1763 8.15541V6.80249C15.357 7.07984 17.5041 9.23234 15.4017 10.979ZM8.79399 10.8234C8.79399 10.1848 9.95074 9.47045 11.4998 9.47045C12.9718 9.47045 14.0704 10.1848 14.0704 10.8234C14.0704 11.462 12.9718 12.1763 11.4998 12.1763C10.3986 12.1763 8.79399 11.6635 8.79399 10.8234ZM10.8234 8.16218C8.88328 8.37188 7.44107 9.45963 7.44107 10.8207C5.54698 8.99422 7.91053 7.05684 10.8234 6.8052V8.16218ZM17.3282 10.5974C17.4901 10.2432 17.5785 9.85981 17.588 9.47045C17.588 7.19349 14.9133 5.41169 11.4998 5.41169C8.08641 5.41169 5.41169 7.19349 5.41169 9.47045C5.42064 9.86119 5.50902 10.246 5.67145 10.6015C5.22126 10.3494 4.83919 9.99152 4.55822 9.55875C4.27726 9.12599 4.10584 8.63135 4.05877 8.11753C4.05877 5.91768 7.46678 4.05877 11.4998 4.05877C15.5329 4.05877 18.9409 5.91768 18.9409 8.11753C18.8938 8.63135 18.7224 9.12599 18.4414 9.55875C18.1605 9.99152 17.7784 10.3494 17.3282 10.6015V10.5974ZM21.6467 12.1763C21.6467 14.2977 19.1493 16.2567 15.5383 17.1172C15.5451 17.0482 15.5586 16.9819 15.5586 16.9115V14.2057C15.5568 13.8383 15.4543 13.4785 15.2623 13.1653C17.669 12.8003 19.9013 11.692 21.6467 9.99539V12.1763ZM19.8974 9.75592C20.156 9.24834 20.2917 8.68716 20.2938 8.11753C20.2938 5.08293 16.4312 2.70584 11.4998 2.70584C6.56844 2.70584 2.70584 5.08293 2.70584 8.11753C2.70809 8.68714 2.84386 9.24829 3.10225 9.75592C2.60152 9.42409 2.18349 8.98193 1.88025 8.46339C1.577 7.94485 1.39661 7.36372 1.35292 6.76461C1.35292 3.83147 6.00021 1.35292 11.4998 1.35292C16.9995 1.35292 21.6467 3.83147 21.6467 6.76461C21.6031 7.36372 21.4227 7.94485 21.1194 8.46339C20.8162 8.98193 20.3981 9.42409 19.8974 9.75592Z" fill="#9F9F9F"/>
</svg>
