<svg width="34" height="28" viewBox="0 0 34 28" fill="none" xmlns="http://www.w3.org/2000/svg">
<path d="M17 0C7.466 0 0 4.4 0 10V18C0 22.566 5.186 26.512 12.638 27.658C13.058 27.8795 13.5251 27.9968 14 28H20C20.4749 27.9968 20.942 27.8795 21.362 27.658C28.814 26.512 34 22.566 34 18V10C34 4.4 26.534 0 17 0ZM2 18V14.776C4.58032 17.2841 7.88029 18.9225 11.438 19.462C11.1541 19.925 11.0026 20.4569 11 21V25C11 25.104 11.02 25.2 11.03 25.304C5.692 24.032 2 21.136 2 18ZM21 25C20.9896 25.2619 20.881 25.5103 20.6956 25.6956C20.5103 25.881 20.2619 25.9896 20 26H18V24H19C19.2652 24 19.5196 23.8946 19.7071 23.7071C19.8946 23.5196 20 23.2652 20 23C20 22.7348 19.8946 22.4804 19.7071 22.2929C19.5196 22.1054 19.2652 22 19 22H18V20H20C20.2652 20 20.5196 20.1054 20.7071 20.2929C20.8946 20.4804 21 20.7348 21 21V25ZM13 25V21C13 20.7348 13.1054 20.4804 13.2929 20.2929C13.4804 20.1054 13.7348 20 14 20H16V22C15.7348 22 15.4804 22.1054 15.2929 22.2929C15.1054 22.4804 15 22.7348 15 23C15 23.2652 15.1054 23.5196 15.2929 23.7071C15.4804 23.8946 15.7348 24 16 24V26H14C13.7378 25.9906 13.4889 25.8822 13.3034 25.6966C13.1178 25.5111 13.0094 25.2622 13 25ZM22.768 16.23C22.968 13.808 20.428 12.336 18 12.056V10.056C22.702 10.466 25.876 13.648 22.768 16.23ZM13 16C13 15.056 14.71 14 17 14C19.176 14 20.8 15.056 20.8 16C20.8 16.944 19.176 18 17 18C15.372 18 13 17.242 13 16ZM16 12.066C13.132 12.376 11 13.984 11 15.996C8.2 13.296 11.694 10.432 16 10.06V12.066ZM25.616 15.666C25.8553 15.1423 25.986 14.5756 26 14C26 10.634 22.046 8 17 8C11.954 8 8 10.634 8 14C8.01324 14.5776 8.14389 15.1465 8.384 15.672C7.71849 15.2993 7.15369 14.7703 6.73834 14.1305C6.32299 13.4908 6.06959 12.7596 6 12C6 8.748 11.038 6 17 6C22.962 6 28 8.748 28 12C27.9304 12.7596 27.677 13.4908 27.2617 14.1305C26.8463 14.7703 26.2815 15.2993 25.616 15.672V15.666ZM32 18C32 21.136 28.308 24.032 22.97 25.304C22.98 25.202 23 25.104 23 25V21C22.9974 20.4569 22.8459 19.925 22.562 19.462C26.1197 18.9225 29.4197 17.2841 32 14.776V18ZM29.414 14.422C29.7962 13.6717 29.9969 12.8421 30 12C30 7.514 24.29 4 17 4C9.71 4 4 7.514 4 12C4.00332 12.842 4.20402 13.6716 4.586 14.422C3.84578 13.9315 3.22782 13.2778 2.77954 12.5113C2.33126 11.7447 2.06459 10.8857 2 10C2 5.664 8.87 2 17 2C25.13 2 32 5.664 32 10C31.9354 10.8857 31.6687 11.7447 31.2205 12.5113C30.7722 13.2778 30.1542 13.9315 29.414 14.422Z" fill="#CDCFD1"/>
</svg>
