<svg width="23" height="17" viewBox="0 0 23 17" fill="none" xmlns="http://www.w3.org/2000/svg">
<path d="M21.6473 1.39433H14.6243C14.3822 1.39463 14.1447 1.46028 13.9368 1.58434C13.7289 1.7084 13.5584 1.88628 13.4432 2.0992C13.3513 1.69959 13.1697 1.3261 12.9122 1.00695C12.6548 0.687793 12.3282 0.431329 11.9571 0.256929C11.5859 0.0825295 11.18 -0.00524375 10.77 0.000242201C10.36 0.00572815 9.95661 0.104329 9.59029 0.288596C9.22397 0.472862 8.90433 0.737973 8.6555 1.0639C8.40668 1.38983 8.23518 1.76804 8.15398 2.16997C8.07277 2.5719 8.08397 2.98703 8.18674 3.38399C8.28951 3.78096 8.48116 4.14937 8.7472 4.4614C8.58485 4.49523 7.64457 4.71169 7.27792 4.79693C7.10752 4.84366 6.96216 4.95521 6.87294 5.10772C6.78372 5.26024 6.75771 5.44161 6.80048 5.61305C6.84325 5.78449 6.95141 5.93239 7.10182 6.02512C7.25222 6.11785 7.43295 6.14805 7.60533 6.10926C8.78289 5.77125 9.99449 5.56569 11.2176 5.49639C10.2068 6.34542 8.92812 6.80935 7.60804 6.80602C5.8641 6.80708 4.17047 7.39057 2.79593 8.46387C1.4214 9.53718 0.444703 11.0388 0.0208518 12.7305C-0.0156771 12.8779 0.00867569 13.4705 0.000558161 14.2471C0.000558161 14.5136 0.0530495 14.7775 0.155036 15.0237C0.257022 15.2699 0.406505 15.4936 0.59495 15.6821C0.783396 15.8705 1.00711 16.02 1.25333 16.122C1.49955 16.224 1.76344 16.2765 2.02994 16.2765H13.6461C14.1837 16.2747 14.6989 16.0614 15.0802 15.6825L15.5592 15.2036L16.0381 15.6825C16.4194 16.0614 16.9347 16.2747 17.4722 16.2765H20.9708C21.5091 16.2765 22.0253 16.0627 22.4058 15.6821C22.7864 15.3015 23.0002 14.7853 23.0002 14.2471V2.74725C23.0002 2.38843 22.8577 2.04431 22.604 1.79059C22.3502 1.53687 22.0061 1.39433 21.6473 1.39433ZM10.8239 4.10017C10.5564 4.10017 10.2948 4.02083 10.0723 3.87217C9.8498 3.7235 9.67639 3.51221 9.574 3.26499C9.4716 3.01778 9.4448 2.74575 9.49701 2.48331C9.54921 2.22087 9.67806 1.9798 9.86727 1.79059C10.0565 1.60138 10.2975 1.47253 10.56 1.42033C10.8224 1.36812 11.0945 1.39492 11.3417 1.49732C11.5889 1.59971 11.8002 1.77312 11.9488 1.99561C12.0975 2.2181 12.1769 2.47967 12.1769 2.74725V4.10017H10.8239ZM7.60804 8.15894C8.28469 8.15787 8.95768 8.05945 9.6063 7.86671C9.83746 8.13779 10.0841 8.39528 10.345 8.63787C10.472 8.76489 10.6443 8.83625 10.8239 8.83625C11.0036 8.83625 11.1758 8.76489 11.3029 8.63787C11.4299 8.51085 11.5012 8.33857 11.5012 8.15894C11.5012 7.9793 11.4299 7.80702 11.3029 7.68L10.9295 7.3066C11.0986 7.2146 11.2677 7.12125 11.4287 7.01437L12.3757 7.96141C12.5028 8.08843 12.675 8.15979 12.8547 8.15979C13.0343 8.15979 13.2066 8.08843 13.3336 7.96141C13.4606 7.83439 13.532 7.66211 13.532 7.48248C13.532 7.30284 13.4606 7.13056 13.3336 7.00354L12.4853 6.15661C12.6206 6.02132 12.7559 5.88603 12.8723 5.75074L13.7287 6.60849C13.7916 6.67138 13.8662 6.72128 13.9484 6.75531C14.0306 6.78935 14.1186 6.80687 14.2076 6.80687C14.2965 6.80687 14.3846 6.78935 14.4668 6.75531C14.549 6.72128 14.6236 6.67138 14.6865 6.60849C14.7494 6.5456 14.7993 6.47093 14.8333 6.38875C14.8674 6.30658 14.8849 6.2185 14.8849 6.12956C14.8849 6.04061 14.8674 5.95253 14.8333 5.87036C14.7993 5.78818 14.7494 5.71352 14.6865 5.65062L13.6583 4.62375C14.1007 3.84312 14.1684 3.63883 14.6256 2.74725H21.6473V12.2177H1.60512C2.08497 11.0184 2.91349 9.9905 3.98361 9.26695C5.05374 8.54341 6.31627 8.15744 7.60804 8.15894ZM20.9708 14.9235H17.4722C17.0447 14.9235 16.8918 14.5731 16.5157 14.2471C16.2578 14.0014 15.9153 13.8644 15.5592 13.8644C15.203 13.8644 14.8605 14.0014 14.6026 14.2471C14.2252 14.5745 14.0723 14.9235 13.6461 14.9235H2.02994C1.85053 14.9235 1.67847 14.8523 1.55161 14.7254C1.42475 14.5986 1.35348 14.4265 1.35348 14.2471V13.5706H21.6473V14.2471C21.6473 14.4265 21.576 14.5986 21.4492 14.7254C21.3223 14.8523 21.1503 14.9235 20.9708 14.9235Z" fill="#9F9F9F"/>
</svg>
