<svg width="20" height="20" viewBox="0 0 20 20" fill="none" xmlns="http://www.w3.org/2000/svg">
<path d="M17.5211 10.9998C17.3003 10.9998 17.0694 10.9295 16.8486 10.8794C16.4015 10.7808 15.9621 10.65 15.5339 10.488C15.0683 10.3186 14.5566 10.3274 14.0971 10.5127C13.6376 10.6979 13.2629 11.0466 13.045 11.4916L12.8242 11.9432C11.8467 11.3994 10.9484 10.724 10.1546 9.93598C9.36655 9.14214 8.69118 8.2439 8.14741 7.2664L8.56892 6.98539C9.01388 6.76752 9.36255 6.39279 9.54783 5.9333C9.73311 5.47382 9.7419 4.96204 9.57252 4.49645C9.41317 4.06734 9.28242 3.62814 9.18112 3.18174C9.13094 2.96094 9.09079 2.73012 9.06069 2.49929C8.93881 1.79237 8.56854 1.15219 8.01656 0.694048C7.46458 0.235901 6.76715 -0.0101101 6.04988 0.000318446H3.03907C2.60655 -0.00374267 2.17823 0.0854374 1.78328 0.261787C1.38832 0.438137 1.036 0.697517 0.75029 1.02227C0.464585 1.34702 0.252207 1.72952 0.127613 2.14373C0.00301953 2.55793 -0.0308642 2.99412 0.0282686 3.4226C0.562926 7.62707 2.48311 11.5336 5.48551 14.5251C8.48791 17.5166 12.4014 19.4225 16.6078 19.9419H16.9891C17.7292 19.943 18.4438 19.6714 18.9963 19.1792C19.3138 18.8952 19.5675 18.5471 19.7405 18.1578C19.9135 17.7685 20.0019 17.347 19.9999 16.921V13.9102C19.9877 13.2131 19.7338 12.5419 19.2817 12.0111C18.8296 11.4803 18.2073 11.1229 17.5211 10.9998ZM18.0229 17.0214C18.0227 17.1639 17.9921 17.3047 17.9333 17.4345C17.8745 17.5643 17.7887 17.6801 17.6816 17.7741C17.5695 17.8709 17.4384 17.9433 17.2966 17.9865C17.1549 18.0297 17.0058 18.0428 16.8587 18.025C13.1001 17.5431 9.60889 15.8236 6.93578 13.1378C4.26266 10.4519 2.55976 6.95261 2.09569 3.19177C2.07972 3.04476 2.09371 2.89604 2.13684 2.75459C2.17996 2.61315 2.25132 2.48191 2.34659 2.36882C2.44064 2.26177 2.5564 2.17597 2.68619 2.11713C2.81597 2.0583 2.95679 2.02777 3.09929 2.02759H6.1101C6.34348 2.0224 6.57137 2.09873 6.75455 2.24344C6.93773 2.38815 7.06473 2.59219 7.1137 2.82044C7.15384 3.09476 7.20402 3.36573 7.26424 3.63336C7.38017 4.1624 7.53447 4.6823 7.7259 5.18894L6.32085 5.84128C6.20072 5.8964 6.09266 5.97471 6.00287 6.0717C5.91308 6.1687 5.84334 6.28248 5.79765 6.40651C5.75195 6.53053 5.73121 6.66236 5.7366 6.79442C5.742 6.92649 5.77343 7.05619 5.82909 7.17607C7.27347 10.2699 9.76044 12.7569 12.8543 14.2013C13.0986 14.3017 13.3727 14.3017 13.617 14.2013C13.7422 14.1565 13.8572 14.0873 13.9554 13.9977C14.0536 13.9082 14.1331 13.8 14.1891 13.6794L14.8113 12.2744C15.3302 12.4599 15.8597 12.6141 16.397 12.736C16.6646 12.7962 16.9356 12.8464 17.2099 12.8866C17.4382 12.9355 17.6422 13.0625 17.7869 13.2457C17.9316 13.4289 18.008 13.6568 18.0028 13.8902L18.0229 17.0214Z" fill="white"/>
</svg>
