<svg width="28" height="40" viewBox="0 0 28 40" fill="none" xmlns="http://www.w3.org/2000/svg">
<path d="M4.14013e-05 31.017C0.0726626 33.6127 0.807591 36.1468 2.13504 38.3787C2.32901 38.7658 2.62685 39.0912 2.99525 39.3187C3.36365 39.5462 3.78808 39.6667 4.22104 39.6667H14.2544C14.7753 39.667 15.2813 39.4931 15.6919 39.1726C16.1025 38.8521 16.394 38.4034 16.52 37.898L17.5 33.978L18.48 37.898C18.6061 38.4034 18.8976 38.8521 19.3082 39.1726C19.7188 39.4931 20.2248 39.667 20.7457 39.6667H23.779C24.2129 39.6667 24.6382 39.5457 25.007 39.3173C25.3759 39.089 25.6739 38.7623 25.8674 38.374C27.1955 36.1443 27.9298 33.6113 28 31.017C28 24.1523 23.3334 22.0057 23.3334 19.3737C23.3334 16.107 28 15.5493 28 10.9597C28 5.992 23.3334 6.496 23.3334 3.409V2.33333C23.3334 1.7145 23.0875 1.121 22.65 0.683418C22.2124 0.245833 21.6189 0 21 0H18.6667C18.0479 0 17.4544 0.245833 17.0168 0.683418C16.5792 1.121 16.3334 1.7145 16.3334 2.33333V3.73333C16.3338 4.18812 16.2217 4.63594 16.0072 5.03694C15.7927 5.43793 15.4823 5.77965 15.1037 6.03167C14.6894 6.30748 14.3176 6.64235 14 7.02567C13.6825 6.64235 13.3107 6.30748 12.8964 6.03167C12.5178 5.77965 12.2074 5.43793 11.9929 5.03694C11.7783 4.63594 11.6663 4.18812 11.6667 3.73333V2.33333C11.6667 1.7145 11.4209 1.121 10.9833 0.683418C10.5457 0.245833 9.95221 0 9.33337 0H7.00004C6.3812 0 5.78771 0.245833 5.35013 0.683418C4.91254 1.121 4.66671 1.7145 4.66671 2.33333V3.409C4.66826 3.92105 4.52663 4.42334 4.2578 4.85915C3.98898 5.29496 3.60367 5.64694 3.14537 5.87533C2.1976 6.34513 1.40049 7.0712 0.844524 7.97114C0.288558 8.87108 -0.00400447 9.90885 4.14013e-05 10.9667C4.14013e-05 15.5027 4.66671 16.1607 4.66671 19.4203C4.66671 21.9123 4.14013e-05 24.206 4.14013e-05 31.017ZM2.33337 10.9503C2.33337 7.27767 7.00004 8.253 7.00004 3.39967V2.33333H9.33337V3.73333C9.33212 4.57257 9.53883 5.39904 9.93501 6.13887C10.3312 6.87871 10.9045 7.50886 11.6037 7.973C11.9816 8.22458 12.2916 8.56556 12.5061 8.96567C12.7206 9.36579 12.833 9.81268 12.8334 10.2667C12.8334 10.5761 12.9563 10.8728 13.1751 11.0916C13.3939 11.3104 13.6906 11.4333 14 11.4333C14.3095 11.4333 14.6062 11.3104 14.825 11.0916C15.0438 10.8728 15.1667 10.5761 15.1667 10.2667C15.1663 9.81189 15.2783 9.36406 15.4929 8.96307C15.7074 8.56207 16.0178 8.22035 16.3964 7.96833C17.0949 7.50463 17.6678 6.87522 18.064 6.13626C18.4601 5.39731 18.6672 4.57178 18.6667 3.73333V2.33333H21V3.409C21 8.309 25.6667 7.25433 25.6667 10.9597C25.6667 14.2543 21 14.7817 21 19.4133C21 23.5083 25.6667 24.5957 25.6667 31.017C25.5869 33.2487 24.9379 35.423 23.7814 37.3333H20.748L18.634 28.8843C18.5467 28.655 18.3917 28.4576 18.1896 28.3183C17.9875 28.179 17.7478 28.1044 17.5024 28.1044C17.2569 28.1044 17.0173 28.179 16.8152 28.3183C16.6131 28.4576 16.4581 28.655 16.3707 28.8843L14.2544 37.3333H4.22104C3.06413 35.423 2.41437 33.2489 2.33337 31.017C2.33337 24.661 7.00004 23.5293 7.00004 19.3737C7.00004 14.7443 2.33337 14.2917 2.33337 10.9667V10.9503Z" fill="#393D46"/>
</svg>
