<svg width="24" height="34" viewBox="0 0 24 34" fill="none" xmlns="http://www.w3.org/2000/svg">
<path d="M3.54868e-05 26.586C0.0622823 28.8109 0.692221 30.983 1.83004 32.896C1.99629 33.2278 2.25159 33.5068 2.56736 33.7017C2.88313 33.8967 3.24692 34 3.61804 34H12.218C12.6645 34.0003 13.0982 33.8512 13.4502 33.5765C13.8021 33.3018 14.052 32.9172 14.16 32.484L15 29.124L15.84 32.484C15.9481 32.9172 16.198 33.3018 16.5499 33.5765C16.9018 33.8512 17.3356 34.0003 17.782 34H20.382C20.7539 34 21.1184 33.8963 21.4346 33.7006C21.7508 33.5048 22.0062 33.2248 22.172 32.892C23.3105 30.9808 23.9398 28.8097 24 26.586C24 20.702 20 18.862 20 16.606C20 13.806 24 13.328 24 9.394C24 5.136 20 5.568 20 2.922V2C20 1.46957 19.7893 0.96086 19.4143 0.585787C19.0392 0.210714 18.5305 0 18 0H16C15.4696 0 14.9609 0.210714 14.5858 0.585787C14.2107 0.96086 14 1.46957 14 2V3.2C14.0004 3.58981 13.9043 3.97366 13.7205 4.31737C13.5366 4.66108 13.2705 4.95399 12.946 5.17C12.5909 5.40641 12.2722 5.69344 12 6.022C11.7279 5.69344 11.4092 5.40641 11.054 5.17C10.7295 4.95399 10.4635 4.66108 10.2796 4.31737C10.0957 3.97366 9.99968 3.58981 10 3.2V2C10 1.46957 9.78932 0.96086 9.41425 0.585787C9.03918 0.210714 8.53047 0 8.00004 0H6.00004C5.4696 0 4.9609 0.210714 4.58582 0.585787C4.21075 0.96086 4.00004 1.46957 4.00004 2V2.922C4.00137 3.3609 3.87997 3.79143 3.64955 4.16498C3.41913 4.53854 3.08886 4.84023 2.69604 5.036C1.88365 5.43868 1.20042 6.06103 0.723878 6.83241C0.247335 7.60378 -0.00343241 8.4933 3.54868e-05 9.4C3.54868e-05 13.288 4.00004 13.852 4.00004 16.646C4.00004 18.782 3.54868e-05 20.748 3.54868e-05 26.586ZM2.00004 9.386C2.00004 6.238 6.00004 7.074 6.00004 2.914V2H8.00004V3.2C7.99896 3.91934 8.17614 4.62775 8.51572 5.26189C8.8553 5.89604 9.34672 6.43616 9.94603 6.834C10.27 7.04964 10.5356 7.3419 10.7195 7.68486C10.9034 8.02782 10.9997 8.41086 11 8.8C11 9.06522 11.1054 9.31957 11.2929 9.50711C11.4805 9.69464 11.7348 9.8 12 9.8C12.2653 9.8 12.5196 9.69464 12.7071 9.50711C12.8947 9.31957 13 9.06522 13 8.8C12.9997 8.41019 13.0957 8.02634 13.2796 7.68263C13.4635 7.33892 13.7295 7.04601 14.054 6.83C14.6528 6.43254 15.1438 5.89305 15.4834 5.25965C15.823 4.62626 16.0004 3.91867 16 3.2V2H18V2.922C18 7.122 22 6.218 22 9.394C22 12.218 18 12.67 18 16.64C18 20.15 22 21.082 22 26.586C21.9317 28.4989 21.3754 30.3626 20.384 32H17.784L15.972 24.758C15.8971 24.5614 15.7643 24.3922 15.5911 24.2728C15.4178 24.1534 15.2124 24.0895 15.002 24.0895C14.7917 24.0895 14.5862 24.1534 14.413 24.2728C14.2398 24.3922 14.1069 24.5614 14.032 24.758L12.218 32H3.61804C2.6264 30.3626 2.06946 28.499 2.00004 26.586C2.00004 21.138 6.00004 20.168 6.00004 16.606C6.00004 12.638 2.00004 12.25 2.00004 9.4V9.386Z" fill="#CDCFD1"/>
</svg>
