<svg width="39" height="9" viewBox="0 0 39 9" fill="none" xmlns="http://www.w3.org/2000/svg">
<path d="M34.5 9C32.0186 9 30 6.98145 30 4.5C30 2.01855 32.0186 0 34.5 0C36.9814 0 39 2.01855 39 4.5C39 6.98145 36.9814 9 34.5 9ZM34.5 3C33.6723 3 33 3.6723 33 4.5C33 5.3277 33.6723 6 34.5 6C35.3277 6 36 5.3277 36 4.5C36 3.6723 35.3277 3 34.5 3ZM19.5 9C17.0186 9 15 6.98145 15 4.5C15 2.01855 17.0186 0 19.5 0C21.9814 0 24 2.01855 24 4.5C24 6.98145 21.9814 9 19.5 9ZM19.5 3C18.6723 3 18 3.6723 18 4.5C18 5.3277 18.6723 6 19.5 6C20.3277 6 21 5.3277 21 4.5C21 3.6723 20.3277 3 19.5 3ZM4.5 9C2.01855 9 0 6.98145 0 4.5C0 2.01855 2.01855 0 4.5 0C6.98145 0 9 2.01855 9 4.5C9 6.98145 6.98145 9 4.5 9ZM4.5 3C3.6723 3 3 3.6723 3 4.5C3 5.3277 3.6723 6 4.5 6C5.3277 6 6 5.3277 6 4.5C6 3.6723 5.3277 3 4.5 3Z" fill="#CDCFD1"/>
</svg>
