<svg width="34" height="34" viewBox="0 0 34 34" fill="none" xmlns="http://www.w3.org/2000/svg">
<path d="M30.274 7.49001C30.112 7.08506 29.8636 6.72031 29.5461 6.42118C29.2287 6.12205 28.8499 5.89574 28.436 5.75801L23.71 4.18201L22.448 1.65801C22.2 1.15863 21.8172 0.738642 21.3428 0.445617C20.8685 0.152591 20.3216 -0.00176899 19.764 1.52952e-05H14.236C13.6784 -0.00176899 13.1315 0.152591 12.6572 0.445617C12.1828 0.738642 11.8 1.15863 11.552 1.65801L10.29 4.18201L5.56401 5.75801C5.15015 5.89574 4.77131 6.12205 4.45387 6.42118C4.13644 6.72031 3.88805 7.08506 3.72601 7.49001L0.358008 15.912C0.120407 16.5026 -0.00114237 17.1334 8.09095e-06 17.77V30C8.09095e-06 30.5304 0.210722 31.0391 0.585795 31.4142C0.960868 31.7893 1.46958 32 2.00001 32H4.00001C4.53044 32 5.03915 31.7893 5.41422 31.4142C5.78929 31.0391 6.00001 30.5304 6.00001 30V27.148L7.00001 23.812V26.056C7.05899 27.1835 7.40305 28.2777 8.00001 29.236V32C8.00001 32.5304 8.21072 33.0391 8.58579 33.4142C8.96087 33.7893 9.46957 34 10 34H24C24.5304 34 25.0392 33.7893 25.4142 33.4142C25.7893 33.0391 26 32.5304 26 32V29.236C26.597 28.2777 26.9411 27.1835 27 26.056V23.812L28 27.148V30C28 30.5304 28.2107 31.0391 28.5858 31.4142C28.9609 31.7893 29.4696 32 30 32H32C32.5304 32 33.0392 31.7893 33.4142 31.4142C33.7893 31.0391 34 30.5304 34 30V17.77C34.0014 17.1341 33.8798 16.5038 33.642 15.914L30.274 7.49001ZM27.978 7.76001C26.9114 9.36396 25.9345 11.0258 25.052 12.738C24.946 13.138 25.036 12.674 25 24C24.2044 24 23.4413 23.6839 22.8787 23.1213C22.3161 22.5587 22 21.7957 22 21C22 20.7348 21.8947 20.4804 21.7071 20.2929C21.5196 20.1054 21.2652 20 21 20C20.7348 20 20.4804 20.1054 20.2929 20.2929C20.1054 20.4804 20 20.7348 20 21C20 22.3261 20.5268 23.5979 21.4645 24.5355C22.4022 25.4732 23.6739 26 25 26V26.056C24.9585 26.7452 24.7461 27.4133 24.382 28H18V9.53601L23.148 6.10401C28.86 8.04601 27.58 7.52801 27.978 7.76001ZM12.8 3.65201L14.038 5.81801L12.298 4.65801L12.8 3.65201ZM21.216 3.65201L21.718 4.65201L19.978 5.81201L21.216 3.65201ZM19.844 2.02001L17 6.98401L14.164 2.02001C14.57 2.00001 19.428 2.00001 19.836 2.02001H19.844ZM10.852 6.10401L16 9.53601V28H9.61801C9.25089 27.4147 9.03826 26.7458 9.00001 26.056V26C10.3261 26 11.5979 25.4732 12.5355 24.5355C13.4732 23.5979 14 22.3261 14 21C14 20.7348 13.8947 20.4804 13.7071 20.2929C13.5196 20.1054 13.2652 20 13 20C12.7348 20 12.4804 20.1054 12.2929 20.2929C12.1054 20.4804 12 20.7348 12 21C12 21.7957 11.6839 22.5587 11.1213 23.1213C10.5587 23.6839 9.79566 24 9.00001 24C8.96401 12.676 9.05401 13.128 8.94801 12.738C8.06611 11.0255 7.08926 9.36357 6.02201 7.76001C6.32801 7.58001 8.81201 6.80001 10.852 6.10401ZM2.00001 30V28H4.00001V30H2.00001ZM6.87401 17.276L4.25601 26H2.00001V17.77C1.99985 17.3884 2.07248 17.0104 2.21401 16.656L4.94001 9.84401L7.00001 13.276V16.414C7.00017 16.7059 6.95773 16.9963 6.87401 17.276ZM10 32V30H24V32H10ZM27 16.414V13.276L29.06 9.84401L31.786 16.658C31.9279 17.0115 32.0006 17.389 32 17.77V26H29.744L27.126 17.274C27.0421 16.9951 26.9997 16.7053 27 16.414ZM30 30V28H32V30H30Z" fill="#CDCFD1"/>
</svg>
