<svg width="7" height="10" viewBox="0 0 7 10" fill="none" xmlns="http://www.w3.org/2000/svg">
<path d="M-0.000185784 5.03198C-0.000951052 4.89964 0.0244152 4.76845 0.0744571 4.64593C0.124499 4.52342 0.198232 4.41198 0.29143 4.31802L4.31372 0.295731C4.50307 0.106377 4.75989 -5.58401e-08 5.02768 -4.41348e-08C5.29546 -3.24295e-08 5.55228 0.106378 5.74164 0.295731C5.93099 0.485084 6.03737 0.741902 6.03737 1.00969C6.03737 1.27747 5.93099 1.53429 5.74164 1.72364L2.42324 5.03198L5.73158 8.34031C5.89632 8.53268 5.9824 8.78013 5.97263 9.03321C5.96285 9.28628 5.85794 9.52636 5.67885 9.70544C5.49976 9.88453 5.25969 9.98944 5.00661 9.99922C4.75354 10.009 4.50609 9.92291 4.31372 9.75817L0.29143 5.73588C0.105656 5.54858 0.000924713 5.29578 -0.000185784 5.03198Z" fill="#9F9F9F"/>
</svg>
