<svg width="29" height="34" viewBox="0 0 29 34" fill="none" xmlns="http://www.w3.org/2000/svg">
<path d="M25.0272 4.838V2C25.0272 1.46957 24.8165 0.96086 24.4414 0.585787C24.0663 0.210714 23.5576 0 23.0272 0H5.02717C4.49674 0 3.98803 0.210714 3.61296 0.585787C3.23789 0.96086 3.02717 1.46957 3.02717 2V4.838C1.44117 10.15 -0.0788258 12.542 0.00317417 17C0.0891742 21.652 1.75917 23.854 4.84717 32.704C4.99192 33.0841 5.24849 33.4115 5.58305 33.6428C5.9176 33.8742 6.31442 33.9987 6.72118 34H15.1792C15.6526 33.9998 16.1106 33.8316 16.4717 33.5255C16.8328 33.2193 17.0735 32.795 17.1512 32.328L18.0272 27.082L18.9712 32.748C19.0295 33.0982 19.2103 33.4164 19.4814 33.6457C19.7524 33.875 20.0961 34.0006 20.4512 34H21.6812C21.9856 33.9992 22.2826 33.9058 22.5326 33.7322C22.7827 33.5585 22.974 33.3129 23.0812 33.028C26.2312 24.028 27.9632 21.688 28.0492 17.002C28.1332 12.532 26.5992 10.102 25.0272 4.838ZM23.0272 2V4H5.02717V2H23.0272ZM21.3332 32H20.8732L19.0132 20.836C18.9738 20.603 18.8531 20.3915 18.6726 20.239C18.4922 20.0864 18.2635 20.0027 18.0272 20.0027C17.7909 20.0027 17.5622 20.0864 17.3817 20.239C17.2012 20.3915 17.0806 20.603 17.0412 20.836L15.1792 32H6.71917C3.55517 23 2.08917 21.126 2.00317 17C1.92117 13.04 3.26117 10.97 4.74918 6H23.3052C24.7852 10.94 26.1252 13.03 26.0512 16.964C25.9752 21.122 24.4872 23.024 21.3332 32Z" fill="#CDCFD1"/>
</svg>
