<svg width="34" height="25" viewBox="0 0 34 25" fill="none" xmlns="http://www.w3.org/2000/svg">
<path d="M31.9999 2.06115H21.6182C21.2603 2.0616 20.9092 2.15864 20.6019 2.34204C20.2946 2.52543 20.0425 2.78838 19.8723 3.10312C19.7364 2.5124 19.468 1.96029 19.0874 1.48851C18.7068 1.01672 18.224 0.637607 17.6754 0.379803C17.1268 0.121998 16.5268 -0.00775152 15.9207 0.000358032C15.3146 0.00846758 14.7182 0.154224 14.1767 0.426613C13.6352 0.699003 13.1627 1.0909 12.7949 1.5727C12.4271 2.0545 12.1736 2.61359 12.0535 3.20774C11.9335 3.80189 11.95 4.41555 12.102 5.00235C12.2539 5.58916 12.5372 6.13377 12.9305 6.59502C12.6905 6.64502 11.3005 6.96501 10.7585 7.09101C10.5066 7.16009 10.2917 7.32499 10.1599 7.55044C10.028 7.77589 9.98951 8.044 10.0527 8.29743C10.116 8.55087 10.2758 8.7695 10.4982 8.90658C10.7205 9.04366 10.9877 9.0883 11.2425 9.03095C12.9832 8.53129 14.7742 8.22742 16.5824 8.12498C15.0881 9.38006 13.1979 10.0659 11.2465 10.0609C8.66854 10.0625 6.16495 10.925 4.13306 12.5116C2.10117 14.0982 0.657377 16.318 0.030824 18.8187C-0.0231745 19.0367 0.0128248 19.9126 0.000825096 21.0606C0.000825096 21.4546 0.0784199 21.8447 0.22918 22.2086C0.379939 22.5726 0.600911 22.9033 0.879479 23.1819C1.15805 23.4604 1.48876 23.6814 1.85272 23.8322C2.21669 23.9829 2.60678 24.0605 3.00074 24.0605H20.1722C20.9668 24.058 21.7285 23.7425 22.2922 23.1826L23.0002 22.4746L23.7081 23.1826C24.2719 23.7425 25.0335 24.058 25.8281 24.0605H30.9999C31.7956 24.0605 32.5586 23.7445 33.1212 23.1819C33.6838 22.6193 33.9998 21.8562 33.9998 21.0606V4.0611C33.9998 3.53068 33.7891 3.02199 33.4141 2.64692C33.039 2.27186 32.5303 2.06115 31.9999 2.06115ZM16.0004 6.06104C15.6048 6.06104 15.2181 5.94375 14.8893 5.72399C14.5604 5.50423 14.304 5.19188 14.1527 4.82644C14.0013 4.461 13.9617 4.05888 14.0389 3.67093C14.116 3.28298 14.3065 2.92662 14.5862 2.64692C14.8659 2.36723 15.2222 2.17675 15.6102 2.09958C15.9981 2.02241 16.4003 2.06202 16.7657 2.21339C17.1312 2.36476 17.4435 2.6211 17.6633 2.94999C17.883 3.27888 18.0003 3.66555 18.0003 4.0611V6.06104H16.0004ZM11.2465 12.0609C12.2468 12.0593 13.2416 11.9138 14.2004 11.6289C14.5421 12.0296 14.9067 12.4102 15.2924 12.7688C15.4802 12.9566 15.7348 13.0621 16.0004 13.0621C16.2659 13.0621 16.5206 12.9566 16.7083 12.7688C16.8961 12.5811 17.0016 12.3264 17.0016 12.0609C17.0016 11.7953 16.8961 11.5407 16.7083 11.3529L16.1564 10.8009C16.4064 10.6649 16.6563 10.5269 16.8943 10.3689L18.2943 11.7689C18.4821 11.9566 18.7367 12.0621 19.0023 12.0621C19.2678 12.0621 19.5225 11.9566 19.7103 11.7689C19.898 11.5811 20.0035 11.3264 20.0035 11.0609C20.0035 10.7954 19.898 10.5407 19.7103 10.3529L18.4563 9.10095C18.6563 8.90096 18.8563 8.70096 19.0283 8.50097L20.2942 9.76893C20.3872 9.86191 20.4976 9.93566 20.6191 9.98597C20.7405 10.0363 20.8707 10.0622 21.0022 10.0622C21.1337 10.0622 21.2639 10.0363 21.3854 9.98597C21.5069 9.93566 21.6172 9.86191 21.7102 9.76893C21.8032 9.67596 21.8769 9.56559 21.9272 9.44411C21.9776 9.32263 22.0035 9.19244 22.0035 9.06095C22.0035 8.92947 21.9776 8.79927 21.9272 8.6778C21.8769 8.55632 21.8032 8.44595 21.7102 8.35297L20.1902 6.83502C20.8442 5.68105 20.9442 5.37906 21.6202 4.0611H31.9999V18.0607H2.37276C3.08209 16.2878 4.30684 14.7684 5.88874 13.6988C7.47063 12.6292 9.33695 12.0587 11.2465 12.0609ZM30.9999 22.0606H25.8281C25.1961 22.0606 24.9701 21.5426 24.4141 21.0606C24.0329 20.6975 23.5266 20.4949 23.0002 20.4949C22.4737 20.4949 21.9674 20.6975 21.5862 21.0606C21.0282 21.5446 20.8022 22.0606 20.1722 22.0606H3.00074C2.73553 22.0606 2.48118 21.9552 2.29365 21.7677C2.10612 21.5802 2.00077 21.3258 2.00077 21.0606V20.0606H31.9999V21.0606C31.9999 21.3258 31.8946 21.5802 31.707 21.7677C31.5195 21.9552 31.2651 22.0606 30.9999 22.0606Z" fill="#393D46"/>
</svg>
