<svg width="34" height="30" viewBox="0 0 34 30" fill="none" xmlns="http://www.w3.org/2000/svg">
<path d="M9.58557 30H23.5856C24.116 30 24.6247 29.7893 24.9998 29.4142C25.3749 29.0391 25.5856 28.5304 25.5856 28V11.414L27.1716 13C27.5523 13.3641 28.0588 13.5673 28.5856 13.5673C29.1124 13.5673 29.6188 13.3641 29.9996 13L32.5856 10.414C32.9605 10.039 33.1711 9.53034 33.1711 9.00001C33.1711 8.46968 32.9605 7.96106 32.5856 7.58601L25.8776 0.87801C25.5998 0.598825 25.2694 0.377482 24.9055 0.226778C24.5416 0.0760743 24.1514 -0.00100081 23.7576 9.81114e-06H9.41357C9.01971 -0.00100081 8.62956 0.0760743 8.26568 0.226778C7.90179 0.377482 7.57139 0.598825 7.29357 0.87801L0.585573 7.58601C0.210631 7.96106 0 8.46968 0 9.00001C0 9.53034 0.210631 10.039 0.585573 10.414L3.17157 13C3.55231 13.3641 4.05879 13.5673 4.58557 13.5673C5.11236 13.5673 5.61884 13.3641 5.99957 13L7.58557 11.414V28C7.58557 28.5304 7.79629 29.0391 8.17136 29.4142C8.54643 29.7893 9.05514 30 9.58557 30ZM19.4016 2.00001C19.1979 2.58455 18.8174 3.09124 18.3128 3.44978C17.8082 3.80832 17.2046 4.00095 16.5856 4.00095C15.9666 4.00095 15.3629 3.80832 14.8583 3.44978C14.3537 3.09124 13.9732 2.58455 13.7696 2.00001H19.4016ZM4.58557 11.586L1.99957 9.00001L8.70757 2.29201C8.89498 2.10507 9.14887 2.00007 9.41357 2.00001H11.6876C11.9171 3.1303 12.5303 4.14648 13.4233 4.87639C14.3163 5.60629 15.4342 6.00502 16.5876 6.00502C17.7409 6.00502 18.8588 5.60629 19.7518 4.87639C20.6448 4.14648 21.2581 3.1303 21.4876 2.00001H23.7616C24.0263 2.00007 24.2802 2.10507 24.4676 2.29201L31.1716 9.00001L28.5856 11.586L25.2936 8.29201C25.1537 8.15179 24.9754 8.05626 24.7812 8.01753C24.5869 7.9788 24.3856 7.9986 24.2026 8.07444C24.0197 8.15027 23.8634 8.27872 23.7535 8.4435C23.6437 8.60828 23.5852 8.80197 23.5856 9.00001V28H9.58557V9.00001C9.58593 8.80197 9.52747 8.60828 9.41761 8.4435C9.30776 8.27872 9.15145 8.15027 8.9685 8.07444C8.78555 7.9986 8.58421 7.9788 8.38999 8.01753C8.19578 8.05626 8.01743 8.15179 7.87757 8.29201L4.58557 11.586Z" fill="#CDCFD1"/>
</svg>
